<?xml version="1.0" encoding="UTF-8"?>
<svg width="240px" height="240px" viewBox="0 0 240 240" version="1.1" xmlns="http://www.w3.org/2000/svg" xmlns:xlink="http://www.w3.org/1999/xlink">
    <!-- Generator: Sketch 54.1 (76490) - https://sketchapp.com -->
    <title>240x240_FAQ_Icon_2019</title>
    <desc>Created with Sketch.</desc>
    <defs>
        <polygon id="path-1" points="0 0.875 215.9996 0.875 215.9996 202.9999 0 202.9999"></polygon>
    </defs>
    <g id="240x240_FAQ_Icon_2019" stroke="none" stroke-width="1" fill="none" fill-rule="evenodd">
        <g id="Group-8" transform="translate(12.000000, 18.000000)">
            <polygon id="Fill-1" fill="#000000" points="105 126.442 111 126.442 111 120.442 105 120.442"></polygon>
            <g id="Group-7" transform="translate(0.000000, 0.125000)">
                <g id="Group-4">
                    <mask id="mask-2" fill="white">
                        <use xlink:href="#path-1"></use>
                    </mask>
                    <g id="Clip-3"></g>
                    <path d="M157.1406,160.0869 C152.5986,161.6759 147.7796,163.0299 142.8176,164.1149 L141.0986,164.4899 L108.6056,196.9829 C108.6206,196.9889 108.6346,196.9999 108.6446,196.9999 L108.6006,196.9879 L108.6056,196.9829 C108.5876,196.9769 108.5686,196.9739 108.5596,196.9649 L108.5996,173.5979 L108.5996,167.7619 L102.7656,167.5999 C74.2546,166.8109 50.3096,159.6059 33.5186,146.7649 C15.2586,132.8009 5.9996,112.7859 5.9996,87.2749 C5.9996,60.9909 15.8076,40.5659 35.1506,26.5679 C52.9526,13.6849 78.1426,6.8749 107.9996,6.8749 C137.8566,6.8749 163.0476,13.6849 180.8496,26.5679 C200.1926,40.5659 209.9996,60.9909 209.9996,87.2749 C209.9996,132.1619 181.2546,151.6459 157.1406,160.0869 M107.9996,0.8749 C48.3536,0.8749 -0.0004,27.6269 -0.0004,87.2749 C-0.0004,145.1089 45.4626,172.0159 102.5996,173.5979 L102.5996,196.9879 C102.5996,200.6059 105.5586,202.9999 108.6446,202.9999 C110.1176,202.9999 111.6206,202.4529 112.8436,201.2309 L144.0976,169.9769 C149.3006,168.8399 154.3206,167.4299 159.1226,165.7499 C192.9806,153.8989 215.9996,128.4219 215.9996,87.2749 C215.9996,27.6269 167.6466,0.8749 107.9996,0.8749" id="Fill-2" fill="#000000" mask="url(#mask-2)"></path>
                </g>
                <path d="M114,47.9375 C98.517,47.9375 93,58.7855 93,68.9375 L99,68.9375 C99,64.4275 100.461,53.9375 114,53.9375 C127.051,53.9375 129,63.3355 129,68.9375 C129,74.3005 128.432,77.5185 116.22,86.5225 C106.62,93.6015 105,100.8175 105,114.3175 L111,114.3175 C111,101.9435 112.27,96.8905 119.78,91.3525 C132.885,81.6885 135,76.8305 135,68.9375 C135,58.7855 129.483,47.9375 114,47.9375" id="Fill-5" fill="#000000"></path>
            </g>
        </g>
    </g>
</svg>